<svg width="267" height="53" viewBox="0 0 267 53" fill="none" xmlns="http://www.w3.org/2000/svg">
	<path d="M0.439941 14.6703L4.1499 14.9604L4.56006 9.75035L14.0601 6.36035L13.3398 15.6804L18.1001 16.0504L17.6499 21.7104L12.8999 21.3404L11.5298 38.9304C11.3398 41.4104 11.1501 43.0303 14.1401 43.2703C14.7301 43.3103 15.3198 43.3604 15.7798 43.2604L15.3398 48.9304C14.0898 48.9604 12.7701 49.0603 10.5601 48.8904C2.61006 48.2704 1.98014 42.9104 2.14014 40.8904L3.70996 20.6304L0 20.3404L0.439941 14.6703Z" fill="#0053A1"></path>
	<path d="M43.1401 37.5798L43.0098 37.6098C41.8998 40.8798 39.7098 42.4598 36.3398 43.2498C32.0798 44.2398 27.7302 42.5698 26.7002 38.1098L20.71 12.3298L29.6802 10.2498L34.8599 32.5198C35.5199 35.3898 36.5199 37.3698 39.3799 36.6998C42.2499 36.0398 42.2701 33.8198 41.6001 30.9598L36.4302 8.67984L45.3999 6.58984L51.3901 32.3698C51.8801 34.4698 52.5099 36.6098 53.1899 38.6598L43.8999 40.8198L43.1401 37.5798Z" fill="#FFABD7"></path>
	<path d="M53.7598 16.5803L57.48 16.4403L57.2998 11.2203L66.3599 6.78027L66.6899 16.1203L71.46 15.9503L71.6602 21.6303L66.8901 21.8003L67.52 39.4303C67.61 41.9103 67.5999 43.5503 70.6099 43.4403C71.1899 43.4203 71.78 43.4003 72.23 43.2503L72.4399 48.9303C71.1999 49.1103 69.9002 49.3503 67.6802 49.4303C59.7102 49.7103 58.4802 44.4603 58.4102 42.4303L57.6899 22.1303L53.96 22.2603L53.7598 16.5803Z" fill="#007939"></path>
	<path d="M76.1094 11.3605L79.7896 11.9605L80.6294 6.80047L90.3896 4.23047L88.8794 13.4505L93.5796 14.2305L92.6597 19.8405L87.9497 19.0605L85.0894 36.4705C84.6894 38.9205 84.3596 40.5205 87.3296 41.0105C87.9096 41.1105 88.4895 41.2005 88.9595 41.1505L88.0396 46.7605C86.7896 46.6805 85.4693 46.6705 83.2793 46.3105C75.4093 45.0105 75.2393 39.6205 75.5693 37.6205L78.8594 17.5705L75.1895 16.9605L76.1094 11.3605Z" fill="#FFAB16"></path>
	<path d="M107.47 49.3196L98.2793 48.7596L100.29 16.8496L109.49 17.4096L107.47 49.3196Z" fill="#F72157"></path>
	<path d="M265.74 52.1497L256.529 52.1096L256.729 20.1396L265.939 20.1796L265.74 52.1497Z" fill="#FFAB16"></path>
	<path d="M149.64 6.01C145.91 5.75 145.13 7.19 145.13 10.52V14.51H149.44V20.19H145.13V47.5H135.92V20.19H131.8V14.51H135.98C135.92 5.03 135.13 0 146.37 0C147.48 0 148.53 0.0699992 149.64 0.129999V6.01Z" fill="#007939"></path>
	<path d="M166.081 13.5099L165.311 17.6899L165.431 17.7099C167.791 14.2899 171.081 13.7699 174.741 14.4499L173.25 22.5399C165.37 20.5599 164.391 25.1599 163.791 28.3699L160.53 46.0399L151.471 44.3699L157.471 11.9199L166.081 13.5099Z" fill="#FFAB16"></path>
	<path d="M197.1 36.5204L196.97 36.5404C195.55 39.6904 193.22 41.0604 189.79 41.5104C185.45 42.0904 181.28 40.0004 180.68 35.4704L177.21 9.23039L186.34 8.02039L189.34 30.6904C189.73 33.6104 190.53 35.6804 193.45 35.2904C196.36 34.9004 196.6 32.7004 196.21 29.7804L193.21 7.11039L202.34 5.90039L205.82 32.1404C206.1 34.2704 206.52 36.4604 207 38.5704L197.54 39.8204L197.1 36.5204Z" fill="#FFABD7"></path>
	<path d="M211.75 15.0197L215.41 15.6997L216.36 10.5597L226.17 8.17969L224.471 17.3697L229.16 18.2297L228.13 23.8297L223.44 22.9597L220.241 40.3097C219.801 42.7497 219.43 44.3497 222.39 44.8897C222.97 44.9997 223.55 45.1097 224.02 45.0597L222.991 50.6497C221.751 50.5497 220.431 50.5097 218.241 50.1097C210.401 48.6597 210.331 43.2697 210.701 41.2797L214.38 21.2897L210.721 20.6197L211.75 15.0197Z" fill="#0053A1"></path>
	<path d="M231.141 11.8403L234.86 11.5703L234.471 6.36031L243.36 1.57031L244.05 10.8903L248.8 10.5403L249.221 16.2103L244.46 16.5603L245.76 34.1603C245.94 36.6303 245.991 38.2703 248.991 38.0503C249.581 38.0003 250.16 37.9603 250.61 37.8003L251.03 43.4703C249.8 43.6903 248.511 43.9803 246.291 44.1403C238.341 44.7303 236.91 39.5303 236.76 37.5103L235.271 17.2403L231.561 17.5103L231.141 11.8403Z" fill="#F72157"></path>
	<path d="M105.75 11.58C102.82 11.58 100.439 9.19996 100.439 6.26996C100.439 3.32996 102.82 0.959961 105.75 0.959961C108.69 0.959961 111.06 3.32996 111.06 6.26996C111.06 9.19996 108.69 11.58 105.75 11.58Z" fill="#F72157"></path>
	<path d="M261.52 14.0604C258.58 14.0604 256.21 11.6904 256.21 8.75043C256.21 5.81043 258.58 3.44043 261.52 3.44043C264.46 3.44043 266.83 5.81043 266.83 8.75043C266.83 11.6904 264.46 14.0604 261.52 14.0604Z" fill="#FFAB16"></path>
</svg>